PathFileType	4	(X/Y/Z)	..\data\2014050\dynamic\2014050_C4_04.trc
DataRate	CameraRate	NumFrames	NumMarkers	Units	OrigDataRate	OrigDataStartFrame	OrigNumFrames
100.000000	100.000000	4	52	mm	100.000000	123	165
Frame#	Time	L_IAS			L_IPS			R_IPS			R_IAS			L_FTC			L_FLE			L_FME			L_FAX			L_TTC			L_FAL			L_TAM			L_FCC			L_FM1			L_FM2			L_FM5			R_FTC			R_FLE			R_FME			R_FAX			R_TTC			R_FAL			R_TAM			R_FCC			R_FM1			R_FM2			R_FM5			CV7			TV10			SXS			SJN			L_SIA			L_SRS			L_SAA			L_SAE			L_HLE			L_HME			L_UOA			L_RSP			L_UHE			L_HM2			L_HM5			R_SIA			R_SRS			R_SAA			R_SAE			R_HLE			R_HME			R_UOA			R_RSP			R_UHE			R_HM2			R_HM5			
		X1	Y1	Z1	X2	Y2	Z2	X3	Y3	Z3	X4	Y4	Z4	X5	Y5	Z5	X6	Y6	Z6	X7	Y7	Z7	X8	Y8	Z8	X9	Y9	Z9	X10	Y10	Z10	X11	Y11	Z11	X12	Y12	Z12	X13	Y13	Z13	X14	Y14	Z14	X15	Y15	Z15	X16	Y16	Z16	X17	Y17	Z17	X18	Y18	Z18	X19	Y19	Z19	X20	Y20	Z20	X21	Y21	Z21	X22	Y22	Z22	X23	Y23	Z23	X24	Y24	Z24	X25	Y25	Z25	X26	Y26	Z26	X27	Y27	Z27	X28	Y28	Z28	X29	Y29	Z29	X30	Y30	Z30	X31	Y31	Z31	X32	Y32	Z32	X33	Y33	Z33	X34	Y34	Z34	X35	Y35	Z35	X36	Y36	Z36	X37	Y37	Z37	X38	Y38	Z38	X39	Y39	Z39	X40	Y40	Z40	X41	Y41	Z41	X42	Y42	Z42	X43	Y43	Z43	X44	Y44	Z44	X45	Y45	Z45	X46	Y46	Z46	X47	Y47	Z47	X48	Y48	Z48	X49	Y49	Z49	X50	Y50	Z50	X51	Y51	Z51	X52	Y52	Z52	

124	1.23	1360.180297851563	874.8154907226565	-300.8305664062501	1162.3671875	895.0545043945315	-239.0575866699219	1169.725830078125	898.504333496094	-129.5306701660157	1371.260864257813	894.046569824219	-91.99996185302736	1293.269897460938	786.2803344726565	-385.1777648925782	1269.734130859375	412.1469116210939	-362.8562927246094	1310.534912109375	389.6036987304689	-234.8083496093751	1213.404663085938	380.2908935546876	-362.3290100097657	1260.560424804688	331.9034729003907	-320.6785888671876	975.3034667968752	194.1363830566407	-308.2305908203126	1002.907348632813	172.696762084961	-229.4420166015626	925.0983886718752	202.9752960205079	-242.2099609375001	1003.065856933594	55.28514099121095	-238.243881225586	1011.008422851563	58.64235305786134	-289.7280578613282	964.659851074219	78.17673492431642	-328.9895629882813	1312.91259765625	793.8103637695315	7.371349811553957	1392.617553710938	434.229461669922	-56.89624786376955	1401.406494140625	434.1977539062501	-194.1833648681641	1371.114379882813	375.8427429199219	-53.73700332641603	1436.78515625	377.0016479492188	-113.9382705688477	1361.11474609375	55.019100189209	-99.7516784667969	1374.435668945313	75.58502197265626	-188.2821197509766	1313.644165039063	15.76713752746582	-147.2366943359375	1491.156005859375	11.64120388031006	-191.4322814941407	1502.542724609375	32.16870117187501	-136.0769653320313	1465.3115234375	12.68964767456055	-81.93299102783205	1241.98486328125	1374.545654296875	-191.7744750976563	1156.212036132813	1152.123779296875	-200.5443115234376	1380.699096679688	1051.853515625	-192.9386291503907	1352.395874023438	1280.259887695313	-191.6453399658203	1160.085815429688	1198.639038085938	-290.5664367675782	1199.10009765625	1314.005249023438	-291.2224731445313	1251.47021484375	1327.08154296875	-354.5639343261719	1301.909790039063	1325.801635742188	-360.0326843261719	1305.166381835938	1034.865112304688	-451.9139099121095	1262.022827148438	1006.712219238281	-383.1331176757813	1277.524780273438	990.758728027344	-434.5969238281251	1443.676025390625	841.5989990234377	-404.9406127929689	1403.866943359375	828.5877075195315	-461.9873352050782	1496.56787109375	783.6923828125002	-404.351531982422	1422.98486328125	761.9436645507814	-462.3721923828126	1149.994262695313	1202.199462890625	-121.4715957641602	1192.599243164063	1307.222045898438	-111.3189239501953	1234.353149414063	1313.623168945313	-40.52669525146485	1289.989868164063	1316.639526367188	-29.10371780395509	1200.453247070313	1022.654968261719	41.55857467651368	1174.461181640625	1012.190734863281	-31.75181770324708	1167.4443359375	994.5983886718752	15.94411563873291	1261.7587890625	796.4667968750002	50.11689376831056	1192.523071289063	804.1632080078127	71.2924270629883	1265.982543945313	710.1283569335939	50.68288421630861	1173.370361328125	731.2899780273439	65.21755981445314	
125	1.24	1371.343505859375	876.0957031250002	-300.5054931640626	1173.603881835938	896.3016357421877	-238.4213256835938	1180.925659179688	899.9627685546877	-129.0451354980469	1382.326293945313	894.6914672851565	-91.14131927490236	1305.05517578125	787.5322875976565	-384.5879211425782	1292.718627929688	413.2242126464845	-362.7366638183594	1334.01171875	390.7714843750001	-234.5962982177735	1236.722534179688	381.7559204101563	-361.8962097167969	1284.172607421875	333.0388183593751	-320.6552124023438	997.2993774414065	198.3576660156251	-307.4976806640626	1025.972412109375	175.0016784667969	-229.251205444336	947.4060058593752	205.0970306396485	-240.7004852294922	1026.826782226563	57.85108947753908	-243.8260345458985	1033.94775390625	63.19353485107423	-295.0297241210938	987.2776489257815	84.80335998535158	-332.8016967773438	1322.19580078125	793.987243652344	7.545828819274904	1397.254638671875	433.7283020019532	-57.04054641723634	1405.476318359375	433.4138793945314	-194.3668365478516	1374.584716796875	375.6091003417969	-53.96372222900392	1440.618408203125	376.1418151855469	-113.9733200073242	1361.411010742188	55.19699478149415	-100.1422348022461	1374.868530273438	75.53081512451173	-188.8460235595703	1313.755615234375	15.8490219116211	-147.3770141601563	1491.27392578125	11.67678451538086	-191.5410766601563	1502.970092773438	32.23641204833985	-136.0927886962891	1465.47509765625	13.01206588745118	-81.81533050537111	1253.786499023438	1375.809936523438	-191.3709259033203	1167.936279296875	1153.363647460938	-199.495590209961	1392.3330078125	1053.039672851563	-193.0860137939454	1363.995727539063	1281.499755859375	-191.6071929931641	1171.29345703125	1199.81884765625	-289.4791564941407	1210.517700195313	1315.169921875	-290.5675659179688	1262.590209960938	1328.089721679688	-354.0376586914063	1313.008544921875	1326.77099609375	-359.9029235839844	1312.292724609375	1035.045288085938	-450.2295532226564	1268.591430664063	1008.205749511719	-381.2380676269532	1283.654296875	992.1027832031252	-432.7303161621095	1444.630004882813	837.1450195312502	-403.9328613281251	1404.569458007813	826.2295532226565	-461.2992248535157	1494.846801757813	776.5960693359377	-403.552215576172	1420.832275390625	759.0186157226564	-462.3725891113282	1161.953735351563	1203.708984375	-120.0494537353516	1204.5322265625	1308.621948242188	-110.5235900878907	1246.796264648438	1314.723388671875	-39.56420516967774	1302.557983398438	1317.71923828125	-29.02541160583497	1218.463500976563	1022.666870117188	43.34526062011719	1191.388549804688	1011.470092773438	-29.51065826416016	1185.6357421875	993.8479614257815	18.1931324005127	1284.634887695313	797.7864990234377	51.4904251098633	1215.381225585938	804.099304199219	73.45571136474611	1290.956909179688	711.5513305664064	52.68196487426759	1197.921142578125	730.7592163085939	68.11399841308595	
126	1.25	1382.431396484375	877.6036376953127	-300.2424621582032	1184.811889648438	897.696716308594	-237.7968444824219	1192.030029296875	901.4271240234377	-128.6334228515625	1393.262084960938	895.3111572265627	-90.3208465576172	1316.498413085938	789.0866699218752	-384.1246337890626	1315.646240234375	414.8194580078126	-362.3900146484376	1357.12060546875	392.6608886718751	-234.0279693603516	1260.00048828125	383.6849670410157	-361.1813659667969	1308.0048828125	334.6098327636719	-320.4153442382813	1020.365539550781	201.3926849365235	-306.7961730957032	1050.04345703125	176.387435913086	-229.0713195800782	970.5330810546877	205.4650115966797	-239.4548034667969	1052.830810546875	59.80862045288087	-249.1813964843751	1059.273071289063	67.31365966796876	-300.0774841308594	1012.241027832031	90.28174591064455	-336.5442199707032	1331.357543945313	794.090515136719	7.572758197784426	1401.526611328125	433.2603759765626	-57.25466537475587	1409.104858398438	432.6423339843751	-194.6217651367188	1377.721923828125	375.3911743164063	-54.24997329711915	1444.050537109375	375.3196716308594	-114.0834426879883	1361.636596679688	55.34391403198244	-100.5501480102539	1375.2529296875	75.46751403808595	-189.4483184814453	1313.774536132813	15.92737293243409	-147.5399322509766	1491.371215820313	11.75141334533692	-191.6263275146485	1503.290283203125	32.3064079284668	-136.0999298095703	1465.551025390625	13.27249717712403	-81.79404449462892	1265.498413085938	1377.106323242188	-191.041488647461	1179.509155273438	1154.651611328125	-198.4797515869141	1403.875244140625	1054.27197265625	-193.3261718750001	1375.480590820313	1282.739990234375	-191.5823211669922	1182.361694335938	1200.974731445313	-288.3641662597657	1221.802612304688	1316.317260742188	-289.9356079101563	1273.589965820313	1329.0556640625	-353.5009460449219	1323.917602539063	1327.730712890625	-359.8667297363282	1319.161865234375	1035.3095703125	-448.655242919922	1274.81640625	1009.801025390625	-379.5483703613282	1289.515258789063	993.5720214843752	-431.0262451171876	1445.056518554688	833.0003662109377	-402.9338378906251	1404.906982421875	824.2083740234377	-460.6622619628907	1492.469970703125	769.8975830078127	-402.7334289550782	1418.295532226563	756.5462036132814	-462.4335021972657	1173.784057617188	1205.280029296875	-118.6771316528321	1216.330810546875	1310.063232421875	-109.786491394043	1259.131103515625	1315.858032226563	-38.72158813476563	1314.952392578125	1318.898071289063	-29.03490638732911	1236.568725585938	1022.862609863281	45.06842803955079	1208.312866210938	1010.922912597656	-27.36320114135743	1203.934692382813	993.2407836914065	20.36128807067871	1307.701538085938	799.447692871094	52.74980926513673	1238.42822265625	804.3010864257815	75.51943206787111	1316.209106445313	713.4084472656251	54.65433883666994	1222.8203125	730.5374145507814	70.99096679687501	
127	1.26	1393.468383789063	879.323425292969	-299.9944152832032	1196.004272460938	899.2114257812502	-237.2275848388672	1203.051635742188	902.8772583007815	-128.3159637451172	1404.091796875	895.935241699219	-89.55899810791017	1327.666015625	790.888366699219	-383.7915954589844	1338.45458984375	416.8812866210939	-361.8441772460938	1379.85888671875	395.1998291015626	-233.1669616699219	1283.170166015625	386.0113220214845	-360.2337646484376	1331.982788085938	336.5829467773438	-320.0041198730469	1044.427612304688	203.120346069336	-306.1773376464844	1075.030639648438	176.8176574707032	-228.9320678710938	994.4302978515627	204.1181030273438	-238.5500183105469	1080.846557617188	61.10422897338869	-254.0765075683594	1086.75048828125	70.80221557617189	-304.6318969726563	1039.326171875	94.38050842285158	-340.0361022949219	1340.520385742188	794.1690063476565	7.486665248870851	1405.483032226563	432.8387451171876	-57.509090423584	1412.385375976563	431.9143981933595	-194.9191436767579	1380.6162109375	375.1995849609376	-54.55706787109376	1447.140869140625	374.5465087890626	-114.2472000122071	1361.8134765625	55.46697235107423	-100.9566955566407	1375.590576171875	75.40335845947267	-190.0629577636719	1313.72119140625	16.0170955657959	-147.7169799804688	1491.455322265625	11.82250213623047	-191.6808471679688	1503.524536132813	32.3435173034668	-136.0911102294922	1465.557495117188	13.44762802124024	-81.83791351318361	1277.12353515625	1378.41259765625	-190.7704772949219	1190.944458007813	1155.964721679688	-197.4988555908204	1415.340698242188	1055.543090820313	-193.6359558105469	1386.8642578125	1283.970092773438	-191.5572814941407	1193.314575195313	1202.093994140625	-287.2254028320313	1232.96533203125	1317.432373046875	-289.3124084472657	1284.483764648438	1329.982666015625	-352.9495239257813	1334.6513671875	1328.67578125	-359.9027099609376	1325.783569335938	1035.667114257813	-447.1868896484376	1280.717407226563	1011.506469726563	-378.0495605468751	1295.106811523438	995.1590576171877	-429.4871826171876	1445.010009765625	829.2041015625002	-401.9541931152345	1404.918090820313	822.5306396484377	-460.0737609863282	1489.52392578125	763.6676635742189	-401.9068298339845	1415.4443359375	754.5306396484376	-462.5368957519532	1185.50439453125	1206.880737304688	-117.3606109619141	1228.006469726563	1311.516723632813	-109.0981903076172	1271.355224609375	1317.031616210938	-37.99687576293946	1327.17919921875	1320.182739257813	-29.10514831542969	1254.713134765625	1023.25048828125	46.71345901489259	1225.240966796875	1010.559631347656	-25.33183097839356	1222.2978515625	992.7835083007815	22.42569351196289	1330.916381835938	801.4688110351565	53.88715744018556	1261.607177734375	804.7877197265627	77.44844818115236	1341.696533203125	715.7238159179689	56.57627868652345	1248.028686523438	730.6403198242189	73.78551483154298	
